<svg width="14" height="14" viewBox="0 0 14 14" fill="none" xmlns="http://www.w3.org/2000/svg">
<path d="M13.6413 2.19149L11.8225 0.371924C11.6901 0.245128 11.5331 0.146874 11.3612 0.0832456C11.1894 0.0196168 11.0062 -0.00803207 10.8232 0.00201109C10.039 0.0656223 9.30753 0.422601 8.77466 1.00178L0.960111 8.80993C0.703146 9.05247 0.531395 9.37158 0.470452 9.71972L0.0207656 13.1989C-0.00472727 13.2968 -0.00663734 13.3994 0.0151923 13.4982C0.0370219 13.597 0.0819685 13.6893 0.146341 13.7673C0.210714 13.8454 0.292677 13.9071 0.385499 13.9473C0.478322 13.9875 0.579356 14.0051 0.680306 13.9987H0.820208L4.29779 13.5588C4.64576 13.4978 4.96473 13.326 5.20715 13.0689L13.0117 5.24077C14.011 4.23101 14.3108 2.86134 13.6413 2.19149ZM4.14789 11.9992L4.06795 12.0592L1.64963 12.3691L1.95941 9.99965L2.01937 9.86968L7.7154 4.17103L9.84392 6.30052L4.14789 11.9992ZM12.0124 4.18102L10.9032 5.24077L8.77466 3.11128L9.83393 2.05153C10.0953 1.76043 10.4475 1.56658 10.8332 1.50166L12.5121 3.18126C12.4585 3.55999 12.2831 3.91096 12.0124 4.18102Z" fill="#757986"/>
</svg>
