<svg width="15" height="16" viewBox="0 0 15 16" fill="none" xmlns="http://www.w3.org/2000/svg">
<path d="M0.390098 3.13475L3.4901 0.274754C3.68636 0.0944069 3.94622 -0.000589691 4.21252 0.0106625C4.47883 0.0219147 4.72975 0.138494 4.9101 0.334754C5.09044 0.531014 5.18544 0.790879 5.17419 1.05718C5.16294 1.32348 5.04636 1.57441 4.8501 1.75475L3.4701 3.01475H8.1001C9.6914 3.01475 11.2175 3.6469 12.3427 4.77211C13.468 5.89733 14.1001 7.42346 14.1001 9.01475C14.1001 10.6061 13.468 12.1322 12.3427 13.2574C11.2175 14.3826 9.6914 15.0148 8.1001 15.0148C7.83488 15.0148 7.58053 14.9094 7.39299 14.7219C7.20545 14.5343 7.1001 14.28 7.1001 14.0148C7.1001 13.7495 7.20545 13.4952 7.39299 13.3076C7.58053 13.1201 7.83488 13.0148 8.1001 13.0148C9.16096 13.0148 10.1784 12.5933 10.9285 11.8432C11.6787 11.093 12.1001 10.0756 12.1001 9.01475C12.1001 7.95389 11.6787 6.93647 10.9285 6.18633C10.1784 5.43618 9.16096 5.01475 8.1001 5.01475H3.4701L4.8501 6.27475C4.99994 6.41094 5.10491 6.5894 5.15112 6.78653C5.19734 6.98367 5.18262 7.19019 5.10892 7.37878C5.03522 7.56737 4.906 7.72914 4.73837 7.8427C4.57073 7.95626 4.37257 8.01626 4.1701 8.01475C3.91968 8.01195 3.6785 7.91974 3.4901 7.75475L0.410097 4.91475C0.282227 4.80207 0.179604 4.66365 0.108948 4.50856C0.0382919 4.35346 0.00119877 4.18518 9.72748e-05 4.01475C0.000231743 3.849 0.0349922 3.6851 0.102152 3.53356C0.169312 3.38202 0.267388 3.24619 0.390098 3.13475Z" fill="#535766"/>
</svg>
