<svg width="14" height="14" viewBox="0 0 14 14" fill="none" xmlns="http://www.w3.org/2000/svg">
<path d="M5.55583 10.5224C5.43195 10.5258 5.31128 10.4827 5.21745 10.4016C5.12363 10.3205 5.0634 10.2072 5.04858 10.084V6.09827C5.04858 5.96614 5.10097 5.83941 5.19423 5.74598C5.2875 5.65255 5.41399 5.60006 5.54588 5.60006C5.67777 5.60006 5.80427 5.65255 5.89753 5.74598C5.99079 5.83941 6.04319 5.96614 6.04319 6.09827V10.084C6.03083 10.2047 5.97408 10.3164 5.88399 10.3975C5.79389 10.4785 5.67691 10.5231 5.55583 10.5224ZM9.02701 10.084V6.09827C9.02701 5.96614 8.97462 5.83941 8.88136 5.74598C8.78809 5.65255 8.6616 5.60006 8.52971 5.60006C8.39782 5.60006 8.27132 5.65255 8.17806 5.74598C8.0848 5.83941 8.0324 5.96614 8.0324 6.09827V10.084C8.03239 10.149 8.04532 10.2133 8.07043 10.2732C8.09554 10.3331 8.13233 10.3873 8.17865 10.4328C8.22496 10.4783 8.27987 10.514 8.34015 10.538C8.40043 10.5619 8.46488 10.5736 8.52971 10.5722C8.6599 10.5723 8.7849 10.5211 8.87789 10.4299C8.97087 10.3386 9.02441 10.2144 9.02701 10.084ZM14.0001 3.93602C13.9974 4.13249 13.9177 4.32002 13.7781 4.45803C13.6385 4.59603 13.4502 4.67339 13.2541 4.67338H12.7568L11.1853 13.1928C11.1409 13.4231 11.0168 13.6303 10.8348 13.778C10.6529 13.9256 10.4248 14.0042 10.1907 14H3.90478C3.67068 14.0042 3.4426 13.9256 3.26066 13.778C3.07873 13.6303 2.95461 13.4231 2.91017 13.1928L1.34863 4.62355H0.821487C0.718326 4.63563 0.613782 4.6257 0.514727 4.5944C0.415672 4.56311 0.32435 4.51117 0.246763 4.44199C0.169177 4.37282 0.107083 4.28797 0.064563 4.19304C0.0220434 4.09811 6.10352e-05 3.99523 6.10352e-05 3.89118C6.10352e-05 3.78713 0.0220434 3.68425 0.064563 3.58932C0.107083 3.49438 0.169177 3.40954 0.246763 3.34036C0.32435 3.27119 0.415672 3.21925 0.514727 3.18796C0.613782 3.15666 0.718326 3.14673 0.821487 3.1588H3.86499C3.92132 2.33629 4.27424 1.56234 4.85797 0.981205C5.44171 0.400067 6.21644 0.0513789 7.0378 0.00012207C7.86091 0.049047 8.63805 0.396705 9.22384 0.978069C9.80963 1.55943 10.164 2.33468 10.2205 3.1588H13.2044C13.3051 3.15059 13.4064 3.16324 13.502 3.19597C13.5977 3.22871 13.6855 3.28082 13.7602 3.34906C13.8348 3.4173 13.8947 3.5002 13.9359 3.59262C13.9772 3.68503 13.999 3.78496 14.0001 3.8862V3.93602ZM11.235 4.69331H2.87038L4.31257 12.4754H9.79286L11.235 4.69331ZM5.36685 3.1588H8.73858C8.69636 2.72221 8.50335 2.31408 8.19285 2.00482C7.88235 1.69557 7.47383 1.5046 7.0378 1.46487C6.60711 1.51113 6.20559 1.70498 5.90112 2.01364C5.59666 2.32229 5.40793 2.72681 5.36685 3.1588Z" fill="#757986"/>
</svg>
